<svg width="200" height="200" viewBox="0 0 200 200" fill="none" xmlns="http://www.w3.org/2000/svg">
<rect width="200" height="200" fill="url(#paint0_linear_111_2)"/>
<mask id="path-2-inside-1_111_2" fill="white">
<path fill-rule="evenodd" clip-rule="evenodd" d="M74 54C62.9543 54 54 62.9543 54 74V126C54 137.046 62.9543 146 74 146H126C137.046 146 146 137.046 146 126V74C146 62.9543 137.046 54 126 54H74ZM100 133C118.225 133 133 118.225 133 100C133 81.7746 118.225 67 100 67C81.7746 67 67 81.7746 67 100C67 118.225 81.7746 133 100 133Z"/>
</mask>
<path fill-rule="evenodd" clip-rule="evenodd" d="M74 54C62.9543 54 54 62.9543 54 74V126C54 137.046 62.9543 146 74 146H126C137.046 146 146 137.046 146 126V74C146 62.9543 137.046 54 126 54H74ZM100 133C118.225 133 133 118.225 133 100C133 81.7746 118.225 67 100 67C81.7746 67 67 81.7746 67 100C67 118.225 81.7746 133 100 133Z" fill="#D9D9D9"/>
<path d="M56 74C56 64.0589 64.0589 56 74 56V52C61.8497 52 52 61.8497 52 74H56ZM56 126V74H52V126H56ZM74 144C64.0589 144 56 135.941 56 126H52C52 138.15 61.8497 148 74 148V144ZM126 144H74V148H126V144ZM144 126C144 135.941 135.941 144 126 144V148C138.15 148 148 138.15 148 126H144ZM144 74V126H148V74H144ZM126 56C135.941 56 144 64.0589 144 74H148C148 61.8497 138.15 52 126 52V56ZM74 56H126V52H74V56ZM131 100C131 117.121 117.121 131 100 131V135C119.33 135 135 119.33 135 100H131ZM100 69C117.121 69 131 82.8792 131 100H135C135 80.67 119.33 65 100 65V69ZM69 100C69 82.8792 82.8792 69 100 69V65C80.67 65 65 80.67 65 100H69ZM100 131C82.8792 131 69 117.121 69 100H65C65 119.33 80.67 135 100 135V131Z" fill="#D9D9D9" mask="url(#path-2-inside-1_111_2)"/>
<circle cx="100" cy="100" r="5" fill="#EDF5FC"/>
<mask id="path-5-inside-2_111_2" fill="white">
<path d="M73.9 100C72.2984 100 70.985 101.302 71.1449 102.895C71.6815 108.244 73.6972 113.359 76.9928 117.654C80.2883 121.949 84.7076 125.22 89.7351 127.123C91.2331 127.689 92.8303 126.758 93.2448 125.211V125.211C93.6594 123.664 92.7316 122.09 91.2483 121.486C87.4498 119.939 84.112 117.405 81.5942 114.123C79.0764 110.842 77.4923 106.962 76.981 102.893C76.7813 101.303 75.5016 100 73.9 100V100Z"/>
</mask>
<path d="M73.9 100C72.2984 100 70.985 101.302 71.1449 102.895C71.6815 108.244 73.6972 113.359 76.9928 117.654C80.2883 121.949 84.7076 125.22 89.7351 127.123C91.2331 127.689 92.8303 126.758 93.2448 125.211V125.211C93.6594 123.664 92.7316 122.09 91.2483 121.486C87.4498 119.939 84.112 117.405 81.5942 114.123C79.0764 110.842 77.4923 106.962 76.981 102.893C76.7813 101.303 75.5016 100 73.9 100V100Z" fill="#D9D9D9" stroke="white" stroke-width="10" mask="url(#path-5-inside-2_111_2)"/>
<mask id="path-6-inside-3_111_2" fill="white">
<path d="M126.1 100C127.702 100 129.015 98.6984 128.855 97.1047C128.319 91.756 126.303 86.6408 123.007 82.3459C119.712 78.051 115.292 74.7801 110.265 72.8774C108.767 72.3105 107.17 73.2423 106.755 74.7893V74.7893C106.341 76.3364 107.268 77.9098 108.752 78.514C112.55 80.0612 115.888 82.5954 118.406 85.8767C120.924 89.158 122.508 93.0379 123.019 97.1075C123.219 98.6966 124.498 100 126.1 100V100Z"/>
</mask>
<path d="M126.1 100C127.702 100 129.015 98.6984 128.855 97.1047C128.319 91.756 126.303 86.6408 123.007 82.3459C119.712 78.051 115.292 74.7801 110.265 72.8774C108.767 72.3105 107.17 73.2423 106.755 74.7893V74.7893C106.341 76.3364 107.268 77.9098 108.752 78.514C112.55 80.0612 115.888 82.5954 118.406 85.8767C120.924 89.158 122.508 93.0379 123.019 97.1075C123.219 98.6966 124.498 100 126.1 100V100Z" fill="#D9D9D9" stroke="white" stroke-width="10" mask="url(#path-6-inside-3_111_2)"/>
<mask id="path-7-inside-4_111_2" fill="white">
<path d="M118 100C119.105 100 120.01 99.1024 119.9 98.0033C119.705 96.0618 119.227 94.1557 118.478 92.3463C117.728 90.537 116.718 88.851 115.483 87.3404C114.784 86.4853 113.509 86.491 112.728 87.2721V87.2721C111.947 88.0531 111.958 89.3128 112.636 90.1851C113.511 91.312 114.234 92.5533 114.782 93.8771C115.33 95.2008 115.697 96.5894 115.875 98.0052C116.013 99.1011 116.895 100 118 100V100Z"/>
</mask>
<path d="M118 100C119.105 100 120.01 99.1024 119.9 98.0033C119.705 96.0618 119.227 94.1557 118.478 92.3463C117.728 90.537 116.718 88.851 115.483 87.3404C114.784 86.4853 113.509 86.491 112.728 87.2721V87.2721C111.947 88.0531 111.958 89.3128 112.636 90.1851C113.511 91.312 114.234 92.5533 114.782 93.8771C115.33 95.2008 115.697 96.5894 115.875 98.0052C116.013 99.1011 116.895 100 118 100V100Z" fill="#D9D9D9" stroke="white" stroke-width="10" mask="url(#path-7-inside-4_111_2)"/>
<mask id="path-8-inside-5_111_2" fill="white">
<path d="M82 100C80.8954 100 79.9897 100.898 80.0999 101.997C80.2947 103.938 80.773 105.844 81.5224 107.654C82.2719 109.463 83.2816 111.149 84.5167 112.66C85.2158 113.515 86.491 113.509 87.2721 112.728V112.728C88.0531 111.947 88.0416 110.687 87.364 109.815C86.4887 108.688 85.7663 107.447 85.2179 106.123C84.6696 104.799 84.3027 103.411 84.1248 101.995C83.9871 100.899 83.1046 100 82 100V100Z"/>
</mask>
<path d="M82 100C80.8954 100 79.9897 100.898 80.0999 101.997C80.2947 103.938 80.773 105.844 81.5224 107.654C82.2719 109.463 83.2816 111.149 84.5167 112.66C85.2158 113.515 86.491 113.509 87.2721 112.728V112.728C88.0531 111.947 88.0416 110.687 87.364 109.815C86.4887 108.688 85.7663 107.447 85.2179 106.123C84.6696 104.799 84.3027 103.411 84.1248 101.995C83.9871 100.899 83.1046 100 82 100V100Z" fill="#D9D9D9" stroke="white" stroke-width="10" mask="url(#path-8-inside-5_111_2)"/>
<defs>
<linearGradient id="paint0_linear_111_2" x1="0" y1="0" x2="200" y2="200" gradientUnits="userSpaceOnUse">
<stop stop-color="#272D2D"/>
<stop offset="1" stop-color="#6F8080"/>
</linearGradient>
</defs>
</svg>