<svg width="50" height="50" viewBox="0 0 50 50" fill="none" xmlns="http://www.w3.org/2000/svg">
<rect width="50" height="50" fill="rgba(80,80,80,0)"/>
<path d="M19.2308 26.5435C19.2308 31.7662 14.9258 36 9.61539 36C4.30497 36 1.52588e-05 31.7662 1.52588e-05 26.5435C1.52588e-05 21.3208 4.30497 17.087 9.61539 17.087C14.9258 17.087 19.2308 21.3208 19.2308 26.5435Z" fill="#E6E6E6"/>
<path d="M34.6154 18.9783C34.6154 25.5937 29.1624 30.9565 22.4359 30.9565C15.7094 30.9565 10.2564 25.5937 10.2564 18.9783C10.2564 12.3629 15.7094 7.00002 22.4359 7.00002C29.1624 7.00002 34.6154 12.3629 34.6154 18.9783Z" fill="#E6E6E6"/>
<path d="M38.4615 26.5435C38.4615 31.7662 34.1566 36 28.8461 36C23.5357 36 19.2307 31.7662 19.2307 26.5435C19.2307 21.3208 23.5357 17.087 28.8461 17.087C34.1566 17.087 38.4615 21.3208 38.4615 26.5435Z" fill="#E6E6E6"/>
<path d="M50 26.5435C50 31.7662 45.6951 36 40.3846 36C35.0742 36 30.7693 31.7662 30.7693 26.5435C30.7693 21.3208 35.0742 17.087 40.3846 17.087C45.6951 17.087 50 21.3208 50 26.5435Z" fill="#E6E6E6"/>
<path d="M41.0257 20.2391C41.0257 24.0691 37.8687 27.1739 33.9744 27.1739C30.0801 27.1739 26.9231 24.0691 26.9231 20.2391C26.9231 16.4092 30.0801 13.3044 33.9744 13.3044C37.8687 13.3044 41.0257 16.4092 41.0257 20.2391Z" fill="#E6E6E6"/>
<path d="M10.2564 27.1739H41.0256V36H10.2564V27.1739Z" fill="#E6E6E6"/>
<rect x="20.5128" y="25.913" width="5.1282" height="10.087" fill="#23CD6A"/>
<path d="M22.3044 18.027C22.7044 17.5402 23.4495 17.5402 23.8495 18.027L29.5053 24.9085C30.0416 25.5611 29.5773 26.5435 28.7327 26.5435H17.4212C16.5765 26.5435 16.1123 25.5611 16.6486 24.9085L22.3044 18.027Z" fill="#23CD6A"/>
</svg>
