<svg width="200" height="200" viewBox="0 0 200 200" fill="none" xmlns="http://www.w3.org/2000/svg">
<rect width="200" height="200" fill="#24CD6A" fill-opacity="0.5"/>
<path d="M36.56 169.4C36.56 168.301 36.8053 167.32 37.296 166.456C37.7973 165.581 38.4747 164.904 39.328 164.424C40.192 163.933 41.1573 163.688 42.224 163.688C43.472 163.688 44.5653 164.008 45.504 164.648C46.4427 165.288 47.0987 166.173 47.472 167.304H44.896C44.64 166.771 44.2773 166.371 43.808 166.104C43.3493 165.837 42.816 165.704 42.208 165.704C41.5573 165.704 40.976 165.859 40.464 166.168C39.9627 166.467 39.568 166.893 39.28 167.448C39.0027 168.003 38.864 168.653 38.864 169.4C38.864 170.136 39.0027 170.787 39.28 171.352C39.568 171.907 39.9627 172.339 40.464 172.648C40.976 172.947 41.5573 173.096 42.208 173.096C42.816 173.096 43.3493 172.963 43.808 172.696C44.2773 172.419 44.64 172.013 44.896 171.48H47.472C47.0987 172.621 46.4427 173.512 45.504 174.152C44.576 174.781 43.4827 175.096 42.224 175.096C41.1573 175.096 40.192 174.856 39.328 174.376C38.4747 173.885 37.7973 173.208 37.296 172.344C36.8053 171.48 36.56 170.499 36.56 169.4ZM51.6253 163.16V175H49.3853V163.16H51.6253ZM54.9744 165.08C54.5797 165.08 54.249 164.957 53.9824 164.712C53.7264 164.456 53.5984 164.141 53.5984 163.768C53.5984 163.395 53.7264 163.085 53.9824 162.84C54.249 162.584 54.5797 162.456 54.9744 162.456C55.369 162.456 55.6944 162.584 55.9504 162.84C56.217 163.085 56.3504 163.395 56.3504 163.768C56.3504 164.141 56.217 164.456 55.9504 164.712C55.6944 164.957 55.369 165.08 54.9744 165.08ZM56.0784 166.136V175H53.8384V166.136H56.0784ZM57.7155 170.568C57.7155 169.651 57.9022 168.851 58.2755 168.168C58.6488 167.475 59.1662 166.941 59.8275 166.568C60.4888 166.184 61.2462 165.992 62.0995 165.992C63.1982 165.992 64.1048 166.269 64.8195 166.824C65.5448 167.368 66.0302 168.136 66.2755 169.128H63.8595C63.7315 168.744 63.5128 168.445 63.2035 168.232C62.9048 168.008 62.5315 167.896 62.0835 167.896C61.4435 167.896 60.9368 168.131 60.5635 168.6C60.1902 169.059 60.0035 169.715 60.0035 170.568C60.0035 171.411 60.1902 172.067 60.5635 172.536C60.9368 172.995 61.4435 173.224 62.0835 173.224C62.9902 173.224 63.5822 172.819 63.8595 172.008H66.2755C66.0302 172.968 65.5448 173.731 64.8195 174.296C64.0942 174.861 63.1875 175.144 62.0995 175.144C61.2462 175.144 60.4888 174.957 59.8275 174.584C59.1662 174.2 58.6488 173.667 58.2755 172.984C57.9022 172.291 57.7155 171.485 57.7155 170.568ZM73.1645 175L70.1565 171.224V175H67.9165V163.16H70.1565V169.896L73.1325 166.136H76.0445L72.1405 170.584L76.0765 175H73.1645ZM83.6808 167.976V172.264C83.6808 172.563 83.7501 172.781 83.8888 172.92C84.0381 173.048 84.2834 173.112 84.6248 173.112H85.6648V175H84.2568C82.3688 175 81.4248 174.083 81.4248 172.248V167.976H80.3688V166.136H81.4248V163.944H83.6808V166.136H85.6648V167.976H83.6808ZM91.2119 175.144C90.3585 175.144 89.5905 174.957 88.9079 174.584C88.2252 174.2 87.6865 173.661 87.2919 172.968C86.9079 172.275 86.7159 171.475 86.7159 170.568C86.7159 169.661 86.9132 168.861 87.3079 168.168C87.7132 167.475 88.2625 166.941 88.9559 166.568C89.6492 166.184 90.4225 165.992 91.2759 165.992C92.1292 165.992 92.9025 166.184 93.5959 166.568C94.2892 166.941 94.8332 167.475 95.2279 168.168C95.6332 168.861 95.8359 169.661 95.8359 170.568C95.8359 171.475 95.6279 172.275 95.2119 172.968C94.8065 173.661 94.2519 174.2 93.5479 174.584C92.8545 174.957 92.0759 175.144 91.2119 175.144ZM91.2119 173.192C91.6172 173.192 91.9959 173.096 92.3479 172.904C92.7105 172.701 92.9985 172.403 93.2119 172.008C93.4252 171.613 93.5319 171.133 93.5319 170.568C93.5319 169.725 93.3079 169.08 92.8599 168.632C92.4225 168.173 91.8839 167.944 91.2439 167.944C90.6039 167.944 90.0652 168.173 89.6279 168.632C89.2012 169.08 88.9879 169.725 88.9879 170.568C88.9879 171.411 89.1959 172.061 89.6119 172.52C90.0385 172.968 90.5719 173.192 91.2119 173.192ZM100.715 170.568C100.715 169.651 100.902 168.851 101.276 168.168C101.649 167.475 102.166 166.941 102.828 166.568C103.489 166.184 104.246 165.992 105.1 165.992C106.198 165.992 107.105 166.269 107.82 166.824C108.545 167.368 109.03 168.136 109.276 169.128H106.86C106.732 168.744 106.513 168.445 106.204 168.232C105.905 168.008 105.532 167.896 105.084 167.896C104.444 167.896 103.937 168.131 103.564 168.6C103.19 169.059 103.004 169.715 103.004 170.568C103.004 171.411 103.19 172.067 103.564 172.536C103.937 172.995 104.444 173.224 105.084 173.224C105.99 173.224 106.582 172.819 106.86 172.008H109.276C109.03 172.968 108.545 173.731 107.82 174.296C107.094 174.861 106.188 175.144 105.1 175.144C104.246 175.144 103.489 174.957 102.828 174.584C102.166 174.2 101.649 173.667 101.276 172.984C100.902 172.291 100.715 171.485 100.715 170.568ZM115.909 166.008C116.581 166.008 117.178 166.157 117.701 166.456C118.223 166.744 118.629 167.176 118.917 167.752C119.215 168.317 119.365 169 119.365 169.8V175H117.125V170.104C117.125 169.4 116.949 168.861 116.597 168.488C116.245 168.104 115.765 167.912 115.157 167.912C114.538 167.912 114.047 168.104 113.685 168.488C113.333 168.861 113.157 169.4 113.157 170.104V175H110.917V163.16H113.157V167.24C113.445 166.856 113.829 166.557 114.309 166.344C114.789 166.12 115.322 166.008 115.909 166.008ZM120.919 170.536C120.919 169.64 121.095 168.845 121.447 168.152C121.809 167.459 122.295 166.925 122.903 166.552C123.521 166.179 124.209 165.992 124.967 165.992C125.628 165.992 126.204 166.125 126.695 166.392C127.196 166.659 127.596 166.995 127.895 167.4V166.136H130.151V175H127.895V173.704C127.607 174.12 127.207 174.467 126.695 174.744C126.193 175.011 125.612 175.144 124.951 175.144C124.204 175.144 123.521 174.952 122.903 174.568C122.295 174.184 121.809 173.645 121.447 172.952C121.095 172.248 120.919 171.443 120.919 170.536ZM127.895 170.568C127.895 170.024 127.788 169.56 127.575 169.176C127.361 168.781 127.073 168.483 126.711 168.28C126.348 168.067 125.959 167.96 125.543 167.96C125.127 167.96 124.743 168.061 124.391 168.264C124.039 168.467 123.751 168.765 123.527 169.16C123.313 169.544 123.207 170.003 123.207 170.536C123.207 171.069 123.313 171.539 123.527 171.944C123.751 172.339 124.039 172.643 124.391 172.856C124.753 173.069 125.137 173.176 125.543 173.176C125.959 173.176 126.348 173.075 126.711 172.872C127.073 172.659 127.361 172.36 127.575 171.976C127.788 171.581 127.895 171.112 127.895 170.568ZM137.25 166.008C138.306 166.008 139.16 166.344 139.81 167.016C140.461 167.677 140.786 168.605 140.786 169.8V175H138.546V170.104C138.546 169.4 138.37 168.861 138.018 168.488C137.666 168.104 137.186 167.912 136.578 167.912C135.96 167.912 135.469 168.104 135.106 168.488C134.754 168.861 134.578 169.4 134.578 170.104V175H132.338V166.136H134.578V167.24C134.877 166.856 135.256 166.557 135.714 166.344C136.184 166.12 136.696 166.008 137.25 166.008ZM146.389 165.992C147.05 165.992 147.631 166.125 148.133 166.392C148.634 166.648 149.029 166.984 149.317 167.4V166.136H151.573V175.064C151.573 175.885 151.407 176.616 151.077 177.256C150.746 177.907 150.25 178.419 149.589 178.792C148.927 179.176 148.127 179.368 147.189 179.368C145.93 179.368 144.895 179.075 144.085 178.488C143.285 177.901 142.831 177.101 142.725 176.088H144.949C145.066 176.493 145.317 176.813 145.701 177.048C146.095 177.293 146.57 177.416 147.125 177.416C147.775 177.416 148.303 177.219 148.709 176.824C149.114 176.44 149.317 175.853 149.317 175.064V173.688C149.029 174.104 148.629 174.451 148.117 174.728C147.615 175.005 147.039 175.144 146.389 175.144C145.642 175.144 144.959 174.952 144.341 174.568C143.722 174.184 143.231 173.645 142.868 172.952C142.516 172.248 142.34 171.443 142.34 170.536C142.34 169.64 142.516 168.845 142.868 168.152C143.231 167.459 143.717 166.925 144.325 166.552C144.943 166.179 145.631 165.992 146.389 165.992ZM149.317 170.568C149.317 170.024 149.21 169.56 148.997 169.176C148.783 168.781 148.495 168.483 148.133 168.28C147.77 168.067 147.381 167.96 146.965 167.96C146.549 167.96 146.165 168.061 145.812 168.264C145.461 168.467 145.173 168.765 144.949 169.16C144.735 169.544 144.629 170.003 144.629 170.536C144.629 171.069 144.735 171.539 144.949 171.944C145.173 172.339 145.461 172.643 145.812 172.856C146.175 173.069 146.559 173.176 146.965 173.176C147.381 173.176 147.77 173.075 148.133 172.872C148.495 172.659 148.783 172.36 148.997 171.976C149.21 171.581 149.317 171.112 149.317 170.568ZM162 170.376C162 170.696 161.979 170.984 161.936 171.24H155.456C155.51 171.88 155.734 172.381 156.128 172.744C156.523 173.107 157.008 173.288 157.584 173.288C158.416 173.288 159.008 172.931 159.36 172.216H161.776C161.52 173.069 161.03 173.773 160.304 174.328C159.579 174.872 158.688 175.144 157.632 175.144C156.779 175.144 156.011 174.957 155.328 174.584C154.656 174.2 154.128 173.661 153.744 172.968C153.371 172.275 153.184 171.475 153.184 170.568C153.184 169.651 153.371 168.845 153.744 168.152C154.118 167.459 154.64 166.925 155.312 166.552C155.984 166.179 156.758 165.992 157.632 165.992C158.475 165.992 159.227 166.173 159.888 166.536C160.56 166.899 161.078 167.416 161.44 168.088C161.814 168.749 162 169.512 162 170.376ZM159.68 169.736C159.67 169.16 159.462 168.701 159.056 168.36C158.651 168.008 158.155 167.832 157.568 167.832C157.014 167.832 156.544 168.003 156.16 168.344C155.787 168.675 155.558 169.139 155.472 169.736H159.68Z" fill="#D9D9D9" fill-opacity="0.75"/>
<rect x="56" y="56" width="88" height="88" rx="18" stroke="#D9D9D9" stroke-opacity="0.75" stroke-width="4"/>
<path d="M79.9186 124.274C77.6879 124.872 75.6466 122.83 76.2444 120.6L79.8307 107.215C80.4284 104.985 83.2168 104.238 84.8498 105.871L94.6477 115.669C96.2807 117.302 95.5336 120.09 93.3029 120.688L79.9186 124.274Z" fill="#D9D9D9" fill-opacity="0.75"/>
<rect x="112.376" y="74" width="20" height="40" rx="3" transform="rotate(45 112.376 74)" fill="#D9D9D9" fill-opacity="0.75"/>
</svg>