<svg width="92" height="92" viewBox="0 0 92 92" fill="none" xmlns="http://www.w3.org/2000/svg">
<rect width="92" height="92" rx="20" fill="#D9D9D9"/>
<g filter="url(#filter0_d_108_38)">
<circle cx="46" cy="46" r="33" fill="#272D2D"/>
</g>
<circle cx="46" cy="46" r="5" fill="#EDF5FC"/>
<mask id="path-4-inside-1_108_38" fill="white">
<path d="M19.9 46C18.2984 46 16.985 47.3016 17.1449 48.8953C17.6815 54.244 19.6972 59.3592 22.9928 63.6541C26.2883 67.9489 30.7076 71.2199 35.7351 73.1226C37.2331 73.6895 38.8303 72.7577 39.2448 71.2107V71.2107C39.6594 69.6636 38.7316 68.0902 37.2483 67.486C33.4498 65.9388 30.112 63.4046 27.5942 60.1233C25.0764 56.8419 23.4923 52.962 22.981 48.8925C22.7813 47.3034 21.5016 46 19.9 46V46Z"/>
</mask>
<path d="M19.9 46C18.2984 46 16.985 47.3016 17.1449 48.8953C17.6815 54.244 19.6972 59.3592 22.9928 63.6541C26.2883 67.9489 30.7076 71.2199 35.7351 73.1226C37.2331 73.6895 38.8303 72.7577 39.2448 71.2107V71.2107C39.6594 69.6636 38.7316 68.0902 37.2483 67.486C33.4498 65.9388 30.112 63.4046 27.5942 60.1233C25.0764 56.8419 23.4923 52.962 22.981 48.8925C22.7813 47.3034 21.5016 46 19.9 46V46Z" fill="#D9D9D9" stroke="white" stroke-width="10" mask="url(#path-4-inside-1_108_38)"/>
<mask id="path-5-inside-2_108_38" fill="white">
<path d="M72.1 46C73.7016 46 75.015 44.6984 74.8552 43.1047C74.3185 37.756 72.3028 32.6408 69.0072 28.3459C65.7117 24.051 61.2924 20.7801 56.2649 18.8774C54.7669 18.3105 53.1697 19.2423 52.7552 20.7893V20.7893C52.3406 22.3364 53.2684 23.9098 54.7517 24.514C58.5502 26.0612 61.888 28.5954 64.4058 31.8767C66.9236 35.158 68.5077 39.0379 69.019 43.1075C69.2187 44.6966 70.4984 46 72.1 46V46Z"/>
</mask>
<path d="M72.1 46C73.7016 46 75.015 44.6984 74.8552 43.1047C74.3185 37.756 72.3028 32.6408 69.0072 28.3459C65.7117 24.051 61.2924 20.7801 56.2649 18.8774C54.7669 18.3105 53.1697 19.2423 52.7552 20.7893V20.7893C52.3406 22.3364 53.2684 23.9098 54.7517 24.514C58.5502 26.0612 61.888 28.5954 64.4058 31.8767C66.9236 35.158 68.5077 39.0379 69.019 43.1075C69.2187 44.6966 70.4984 46 72.1 46V46Z" fill="#D9D9D9" stroke="white" stroke-width="10" mask="url(#path-5-inside-2_108_38)"/>
<mask id="path-6-inside-3_108_38" fill="white">
<path d="M64 46C65.1046 46 66.0104 45.1024 65.9001 44.0033C65.7053 42.0618 65.227 40.1557 64.4776 38.3463C63.7281 36.537 62.7184 34.851 61.4833 33.3404C60.7842 32.4853 59.509 32.491 58.7279 33.2721V33.2721C57.9469 34.0531 57.9584 35.3128 58.636 36.1851C59.5113 37.312 60.2337 38.5533 60.7821 39.8771C61.3304 41.2008 61.6973 42.5894 61.8752 44.0052C62.0129 45.1011 62.8954 46 64 46V46Z"/>
</mask>
<path d="M64 46C65.1046 46 66.0104 45.1024 65.9001 44.0033C65.7053 42.0618 65.227 40.1557 64.4776 38.3463C63.7281 36.537 62.7184 34.851 61.4833 33.3404C60.7842 32.4853 59.509 32.491 58.7279 33.2721V33.2721C57.9469 34.0531 57.9584 35.3128 58.636 36.1851C59.5113 37.312 60.2337 38.5533 60.7821 39.8771C61.3304 41.2008 61.6973 42.5894 61.8752 44.0052C62.0129 45.1011 62.8954 46 64 46V46Z" fill="#D9D9D9" stroke="white" stroke-width="10" mask="url(#path-6-inside-3_108_38)"/>
<mask id="path-7-inside-4_108_38" fill="white">
<path d="M28 46C26.8954 46 25.9897 46.8976 26.0999 47.9967C26.2947 49.9382 26.773 51.8443 27.5224 53.6537C28.2719 55.463 29.2816 57.149 30.5167 58.6596C31.2158 59.5147 32.491 59.509 33.2721 58.7279V58.7279C34.0531 57.9469 34.0416 56.6872 33.364 55.8149C32.4887 54.688 31.7663 53.4467 31.2179 52.1229C30.6696 50.7991 30.3027 49.4105 30.1248 47.9948C29.9871 46.8989 29.1046 46 28 46V46Z"/>
</mask>
<path d="M28 46C26.8954 46 25.9897 46.8976 26.0999 47.9967C26.2947 49.9382 26.773 51.8443 27.5224 53.6537C28.2719 55.463 29.2816 57.149 30.5167 58.6596C31.2158 59.5147 32.491 59.509 33.2721 58.7279V58.7279C34.0531 57.9469 34.0416 56.6872 33.364 55.8149C32.4887 54.688 31.7663 53.4467 31.2179 52.1229C30.6696 50.7991 30.3027 49.4105 30.1248 47.9948C29.9871 46.8989 29.1046 46 28 46V46Z" fill="#D9D9D9" stroke="white" stroke-width="10" mask="url(#path-7-inside-4_108_38)"/>
<defs>
<filter id="filter0_d_108_38" x="6" y="12" width="80" height="80" filterUnits="userSpaceOnUse" color-interpolation-filters="sRGB">
<feFlood flood-opacity="0" result="BackgroundImageFix"/>
<feColorMatrix in="SourceAlpha" type="matrix" values="0 0 0 0 0 0 0 0 0 0 0 0 0 0 0 0 0 0 127 0" result="hardAlpha"/>
<feOffset dy="6"/>
<feGaussianBlur stdDeviation="3.5"/>
<feComposite in2="hardAlpha" operator="out"/>
<feColorMatrix type="matrix" values="0 0 0 0 0 0 0 0 0 0 0 0 0 0 0 0 0 0 0.24 0"/>
<feBlend mode="normal" in2="BackgroundImageFix" result="effect1_dropShadow_108_38"/>
<feBlend mode="normal" in="SourceGraphic" in2="effect1_dropShadow_108_38" result="shape"/>
</filter>
</defs>
</svg>