<svg width="200" height="200" viewBox="0 0 200 200" fill="none" xmlns="http://www.w3.org/2000/svg">
<rect width="200" height="200" fill="#24CD6A" fill-opacity="0.5"/>
<rect x="54" y="54" width="92" height="92" rx="20" fill="rgba(245,244,244,0.6)" fill-opacity="0.8"/>
<circle cx="100" cy="100" r="33" fill="#272D2D"/>
<rect x="86" y="54" width="60" height="92" rx="20" fill="#F5F4F4" fill-opacity="0.8"/>
<mask id="path-5-inside-1_110_2" fill="white">
<path d="M73.9 100C72.2984 100 70.985 101.302 71.1449 102.895C71.6815 108.244 73.6972 113.359 76.9928 117.654C80.2883 121.949 84.7076 125.22 89.7351 127.123C91.2331 127.689 92.8303 126.758 93.2448 125.211V125.211C93.6594 123.664 92.7316 122.09 91.2483 121.486C87.4498 119.939 84.112 117.405 81.5942 114.123C79.0764 110.842 77.4923 106.962 76.981 102.893C76.7813 101.303 75.5016 100 73.9 100V100Z"/>
</mask>
<path d="M73.9 100C72.2984 100 70.985 101.302 71.1449 102.895C71.6815 108.244 73.6972 113.359 76.9928 117.654C80.2883 121.949 84.7076 125.22 89.7351 127.123C91.2331 127.689 92.8303 126.758 93.2448 125.211V125.211C93.6594 123.664 92.7316 122.09 91.2483 121.486C87.4498 119.939 84.112 117.405 81.5942 114.123C79.0764 110.842 77.4923 106.962 76.981 102.893C76.7813 101.303 75.5016 100 73.9 100V100Z" stroke="#D9D9D9" stroke-opacity="0.5" stroke-width="10" mask="url(#path-5-inside-1_110_2)"/>
<mask id="path-6-inside-2_110_2" fill="white">
<path d="M126.1 100C127.702 100 129.015 98.6984 128.855 97.1047C128.319 91.756 126.303 86.6408 123.007 82.3459C119.712 78.051 115.292 74.7801 110.265 72.8774C108.767 72.3105 107.17 73.2423 106.755 74.7893V74.7893C106.341 76.3364 107.268 77.9098 108.752 78.514C112.55 80.0612 115.888 82.5954 118.406 85.8767C120.924 89.158 122.508 93.0379 123.019 97.1075C123.219 98.6966 124.498 100 126.1 100V100Z"/>
</mask>
<path d="M126.1 100C127.702 100 129.015 98.6984 128.855 97.1047C128.319 91.756 126.303 86.6408 123.007 82.3459C119.712 78.051 115.292 74.7801 110.265 72.8774C108.767 72.3105 107.17 73.2423 106.755 74.7893V74.7893C106.341 76.3364 107.268 77.9098 108.752 78.514C112.55 80.0612 115.888 82.5954 118.406 85.8767C120.924 89.158 122.508 93.0379 123.019 97.1075C123.219 98.6966 124.498 100 126.1 100V100Z" stroke="#D9D9D9" stroke-opacity="0.5" stroke-width="10" mask="url(#path-6-inside-2_110_2)"/>
<mask id="path-7-inside-3_110_2" fill="white">
<path d="M118 100C119.105 100 120.01 99.1024 119.9 98.0033C119.705 96.0618 119.227 94.1557 118.478 92.3463C117.728 90.537 116.718 88.851 115.483 87.3404C114.784 86.4853 113.509 86.491 112.728 87.2721V87.2721C111.947 88.0531 111.958 89.3128 112.636 90.1851C113.511 91.312 114.234 92.5533 114.782 93.8771C115.33 95.2008 115.697 96.5894 115.875 98.0052C116.013 99.1011 116.895 100 118 100V100Z"/>
</mask>
<path d="M118 100C119.105 100 120.01 99.1024 119.9 98.0033C119.705 96.0618 119.227 94.1557 118.478 92.3463C117.728 90.537 116.718 88.851 115.483 87.3404C114.784 86.4853 113.509 86.491 112.728 87.2721V87.2721C111.947 88.0531 111.958 89.3128 112.636 90.1851C113.511 91.312 114.234 92.5533 114.782 93.8771C115.33 95.2008 115.697 96.5894 115.875 98.0052C116.013 99.1011 116.895 100 118 100V100Z" stroke="#D9D9D9" stroke-opacity="0.5" stroke-width="10" mask="url(#path-7-inside-3_110_2)"/>
<mask id="path-8-inside-4_110_2" fill="white">
<path d="M82 100C80.8954 100 79.9897 100.898 80.0999 101.997C80.2947 103.938 80.773 105.844 81.5224 107.654C82.2719 109.463 83.2816 111.149 84.5167 112.66C85.2158 113.515 86.491 113.509 87.2721 112.728V112.728C88.0531 111.947 88.0416 110.687 87.364 109.815C86.4887 108.688 85.7663 107.447 85.2179 106.123C84.6696 104.799 84.3027 103.411 84.1248 101.995C83.9871 100.899 83.1046 100 82 100V100Z"/>
</mask>
<path d="M82 100C80.8954 100 79.9897 100.898 80.0999 101.997C80.2947 103.938 80.773 105.844 81.5224 107.654C82.2719 109.463 83.2816 111.149 84.5167 112.66C85.2158 113.515 86.491 113.509 87.2721 112.728V112.728C88.0531 111.947 88.0416 110.687 87.364 109.815C86.4887 108.688 85.7663 107.447 85.2179 106.123C84.6696 104.799 84.3027 103.411 84.1248 101.995C83.9871 100.899 83.1046 100 82 100V100Z" stroke="#D9D9D9" stroke-opacity="0.5" stroke-width="10" mask="url(#path-8-inside-4_110_2)"/>
<path fill-rule="evenodd" clip-rule="evenodd" d="M111.591 101.83C112.422 100.751 112.422 99.2487 111.591 98.1701L106.377 91.3967C104.63 89.1273 101 90.3627 101 93.2268V95H92C90.8954 95 90 95.8955 90 97V103C90 104.105 90.8954 105 92 105H101V106.773C101 109.637 104.63 110.873 106.377 108.603L111.591 101.83Z" fill="#23CE6B" fill-opacity="0.7"/>
</svg>