<svg width="50" height="51" viewBox="0 0 50 51" fill="none" xmlns="http://www.w3.org/2000/svg">
<rect width="50" height="50" fill="transparent"/>
<path d="M10 6C10 4.34315 11.3431 3 13 3L37 3C38.6569 3 40 4.34315 40 6V9H10V6Z" fill="#A50909"/>
<path d="M22 2C22 0.89543 22.8954 0 24 0H26C27.1046 0 28 0.895431 28 2V7H22V2Z" fill="#A50909"/>
<path fill-rule="evenodd" clip-rule="evenodd" d="M10 10.0256H40V47.0256C40 48.6825 38.6569 50.0256 37 50.0256H13C11.3431 50.0256 10 48.6825 10 47.0256V10.0256ZM33.3333 14.359C33.3333 13.8067 33.7811 13.359 34.3333 13.359H35.6667C36.219 13.359 36.6667 13.8067 36.6667 14.359V45.6923C36.6667 46.2446 36.219 46.6923 35.6667 46.6923H34.3333C33.7811 46.6923 33.3333 46.2446 33.3333 45.6923V14.359ZM27.6667 13.359C27.1144 13.359 26.6667 13.8067 26.6667 14.359V45.6923C26.6667 46.2446 27.1144 46.6923 27.6667 46.6923H29C29.5523 46.6923 30 46.2446 30 45.6923V14.359C30 13.8067 29.5523 13.359 29 13.359H27.6667ZM20 14.359C20 13.8067 20.4477 13.359 21 13.359H22.3333C22.8856 13.359 23.3333 13.8067 23.3333 14.359V45.6923C23.3333 46.2446 22.8856 46.6923 22.3333 46.6923H21C20.4477 46.6923 20 46.2446 20 45.6923V14.359ZM14.3333 13.359C13.781 13.359 13.3333 13.8067 13.3333 14.359V45.6923C13.3333 46.2446 13.781 46.6923 14.3333 46.6923H15.6667C16.2189 46.6923 16.6667 46.2446 16.6667 45.6923V14.359C16.6667 13.8067 16.2189 13.359 15.6667 13.359H14.3333Z" fill="#A50909"/>
</svg>
